{
  "accessors": [
    {
      "bufferView": 2,
      "componentType": 5126,
      "count": 1650,
      "max": [16.774019241333008, 15.352499961853027, 1.5705499649047852],
      "min": [-16.774019241333008, -15.352499961853027, -1.5705499649047852],
      "type": "VEC3"
    },
    {
      "bufferView": 2,
      "byteOffset": 19800,
      "componentType": 5126,
      "count": 1650,
      "max": [1.0, 1.0, 1.0],
      "min": [-1.0, -1.0, -1.0],
      "type": "VEC3"
    },
    {
      "bufferView": 1,
      "componentType": 5126,
      "count": 1650,
      "max": [0.989870011806488, 0.9437599778175354],
      "min": [0.8299300074577332, 0.7671700119972229],
      "type": "VEC2"
    },
    {
      "bufferView": 0,
      "componentType": 5125,
      "count": 8400,
      "type": "SCALAR"
    },
    {
      "bufferView": 2,
      "byteOffset": 39600,
      "componentType": 5126,
      "count": 52,
      "max": [1.1211899518966675, 1.000249981880188, 0.6564199924468994],
      "min": [-0.8788099884986877, -0.999750018119812, -0.1398400068283081],
      "type": "VEC3"
    },
    {
      "bufferView": 2,
      "byteOffset": 40224,
      "componentType": 5126,
      "count": 52,
      "max": [0.7352414131164551, 0.5121678709983826, 1.0],
      "min": [-0.5640703439712524, -0.9987657070159912, -0.7844626307487488],
      "type": "VEC3"
    },
    {
      "bufferView": 1,
      "byteOffset": 13200,
      "componentType": 5126,
      "count": 52,
      "max": [0.9969800114631653, 0.7781299948692322],
      "min": [0.5994300246238708, 0.0003499999875202775],
      "type": "VEC2"
    },
    {
      "bufferView": 0,
      "byteOffset": 33600,
      "componentType": 5125,
      "count": 78,
      "type": "SCALAR"
    },
    {
      "bufferView": 2,
      "byteOffset": 40848,
      "componentType": 5126,
      "count": 7862,
      "max": [2.130729913711548, 2.514549970626831, 0.7623500227928162],
      "min": [-2.2835500240325928, -1.8229700326919556, -1.6035000085830688],
      "type": "VEC3"
    },
    {
      "bufferView": 2,
      "byteOffset": 135192,
      "componentType": 5126,
      "count": 7862,
      "max": [1.0, 1.0, 1.0],
      "min": [-1.0, -1.0, -1.0],
      "type": "VEC3"
    },
    {
      "bufferView": 1,
      "byteOffset": 13616,
      "componentType": 5126,
      "count": 7862,
      "max": [0.996940016746521, 0.9983999729156494],
      "min": [-0.00011000000085914508, 0.0],
      "type": "VEC2"
    },
    {
      "bufferView": 1,
      "byteOffset": 76512,
      "componentType": 5126,
      "count": 7862,
      "max": [3.6474099159240723, 3.140439987182617],
      "min": [-1.740820050239563, -2.322809934616089],
      "type": "VEC2"
    },
    {
      "bufferView": 0,
      "byteOffset": 33912,
      "componentType": 5125,
      "count": 36831,
      "type": "SCALAR"
    },
    {
      "bufferView": 2,
      "byteOffset": 229536,
      "componentType": 5126,
      "count": 3691,
      "max": [1.0, 1.0, 1.203950047492981],
      "min": [-1.0, -1.0, -0.05556999891996384],
      "type": "VEC3"
    },
    {
      "bufferView": 2,
      "byteOffset": 273828,
      "componentType": 5126,
      "count": 3691,
      "max": [0.9999776482582092, 0.9995526075363159, 1.0],
      "min": [-0.9997208714485168, -0.9997095465660095, -1.0],
      "type": "VEC3"
    },
    {
      "bufferView": 1,
      "byteOffset": 139408,
      "componentType": 5126,
      "count": 3691,
      "max": [0.9932199716567993, 0.9958099722862244],
      "min": [0.0057299998588860035, 0.00824000034481287],
      "type": "VEC2"
    },
    {
      "bufferView": 1,
      "byteOffset": 168936,
      "componentType": 5126,
      "count": 3691,
      "max": [3.425990104675293, 5.281089782714844],
      "min": [-7.110690116882324, -4.617710113525391],
      "type": "VEC2"
    },
    {
      "bufferView": 0,
      "byteOffset": 181236,
      "componentType": 5125,
      "count": 15066,
      "type": "SCALAR"
    },
    {
      "bufferView": 3,
      "componentType": 5126,
      "count": 250,
      "max": [10.416669845581055],
      "min": [0.041669998317956924],
      "type": "SCALAR"
    },
    {
      "bufferView": 4,
      "componentType": 5126,
      "count": 250,
      "max": [0.0, 0.0, 0.9999799728393555, 1.0],
      "min": [0.0, 0.0, -0.9998199939727783, -0.006310000084340572],
      "type": "VEC4"
    }
  ],
  "animations": [
    {
      "channels": [
        {
          "sampler": 0,
          "target": {
            "node": 10,
            "path": "rotation"
          }
        }
      ],
      "name": "MCH_Rotation_target.001Action",
      "samplers": [
        {
          "input": 18,
          "interpolation": "LINEAR",
          "output": 19
        }
      ]
    }
  ],
  "asset": {
    "extras": {
      "author": "Vie Dinh (https://sketchfab.com/yenvydinh2295)",
      "license": "CC-BY-4.0 (http://creativecommons.org/licenses/by/4.0/)",
      "source": "https://sketchfab.com/3d-models/fishsoup-pot-5a39e8c683f946b1aeb848dd2e88deb8",
      "title": "FishSoup_Pot"
    },
    "generator": "Sketchfab-12.66.0",
    "version": "2.0"
  },
  "bufferViews": [
    {
      "buffer": 0,
      "byteLength": 241500,
      "name": "floatBufferViews",
      "target": 34963
    },
    {
      "buffer": 0,
      "byteLength": 198464,
      "byteOffset": 241500,
      "byteStride": 8,
      "name": "floatBufferViews",
      "target": 34962
    },
    {
      "buffer": 0,
      "byteLength": 318120,
      "byteOffset": 439964,
      "byteStride": 12,
      "name": "floatBufferViews",
      "target": 34962
    },
    {
      "buffer": 0,
      "byteLength": 1000,
      "byteOffset": 758084,
      "name": "floatBufferViews"
    },
    {
      "buffer": 0,
      "byteLength": 4000,
      "byteOffset": 759084,
      "byteStride": 16,
      "name": "floatBufferViews"
    }
  ],
  "buffers": [
    {
      "byteLength": 763084,
      "uri": "scene.bin"
    }
  ],
  "extensionsUsed": ["KHR_materials_unlit"],
  "images": [
    {
      "uri": "textures/FishSoup_Pot_2_B_baseColor.png"
    },
    {
      "uri": "textures/FishSoup_Pot_1_A_baseColor.jpeg"
    }
  ],
  "materials": [
    {
      "alphaMode": "BLEND",
      "doubleSided": true,
      "extensions": {
        "KHR_materials_unlit": {}
      },
      "name": "FishSoup_Pot_2_B",
      "pbrMetallicRoughness": {
        "baseColorTexture": {
          "index": 0
        },
        "metallicFactor": 0.0
      }
    },
    {
      "doubleSided": true,
      "extensions": {
        "KHR_materials_unlit": {}
      },
      "name": "FishSoup_Pot_1_A",
      "pbrMetallicRoughness": {
        "baseColorTexture": {
          "index": 1
        },
        "metallicFactor": 0.0
      }
    },
    {
      "alphaMode": "BLEND",
      "doubleSided": true,
      "extensions": {
        "KHR_materials_unlit": {}
      },
      "name": "FishSoup_Pot_2_A",
      "pbrMetallicRoughness": {
        "baseColorTexture": {
          "index": 0
        },
        "metallicFactor": 0.0
      }
    },
    {
      "doubleSided": true,
      "extensions": {
        "KHR_materials_unlit": {}
      },
      "name": "FishSoup_Pot_1_B",
      "pbrMetallicRoughness": {
        "baseColorTexture": {
          "index": 1
        },
        "metallicFactor": 0.0
      }
    }
  ],
  "meshes": [
    {
      "name": "Sphere.030_0",
      "primitives": [
        {
          "attributes": {
            "NORMAL": 1,
            "POSITION": 0,
            "TEXCOORD_0": 2
          },
          "indices": 3,
          "material": 3,
          "mode": 4
        }
      ]
    },
    {
      "name": "Plane.040_0",
      "primitives": [
        {
          "attributes": {
            "NORMAL": 5,
            "POSITION": 4,
            "TEXCOORD_0": 6
          },
          "indices": 7,
          "material": 2,
          "mode": 4
        }
      ]
    },
    {
      "name": "Plane.008_0",
      "primitives": [
        {
          "attributes": {
            "NORMAL": 9,
            "POSITION": 8,
            "TEXCOORD_0": 10,
            "TEXCOORD_1": 11
          },
          "indices": 12,
          "material": 1,
          "mode": 4
        }
      ]
    },
    {
      "name": "Plane.001_0",
      "primitives": [
        {
          "attributes": {
            "NORMAL": 14,
            "POSITION": 13,
            "TEXCOORD_0": 15,
            "TEXCOORD_1": 16
          },
          "indices": 17,
          "material": 0,
          "mode": 4
        }
      ]
    }
  ],
  "nodes": [
    {
      "children": [1],
      "matrix": [
        1.0, 0.0, 0.0, 0.0, 0.0, 2.220446049250313e-16, -1.0, 0.0, 0.0, 1.0,
        2.220446049250313e-16, 0.0, 0.0, 0.0, 0.0, 1.0
      ],
      "name": "Sketchfab_model"
    },
    {
      "children": [2, 4, 6, 8],
      "name": "Root"
    },
    {
      "children": [3],
      "matrix": [
        0.05060000000000001, 0.0, 0.0, 0.0, 0.0, 0.05060000000000001, 0.0, 0.0,
        0.0, 0.0, 0.05060000000000001, 0.0, 0.04699000000000001, 0.01823,
        2.17956, 1.0
      ],
      "name": "Sphere.030"
    },
    {
      "mesh": 0,
      "name": "Sphere.030_0"
    },
    {
      "children": [5],
      "matrix": [
        1.2462199999999999, -0.73721, 0.0, 0.0, 0.004750000000000001,
        0.008030000000000002, 1.4479099999999998, 0.0, -0.7371900000000001,
        -1.24619, 0.009330000000000003, 0.0, 0.06711000000000002, 0.26112,
        2.57115, 1.0
      ],
      "name": "Plane.040"
    },
    {
      "mesh": 1,
      "name": "Plane.040_0"
    },
    {
      "children": [7],
      "matrix": [
        0.9953299999999999, 0.09655000000000002, 0.0, 0.0, -0.09655000000000002,
        0.9953299999999999, 0.0, 0.0, 0.0, 0.0, 1.0, 0.0, 0.03144,
        0.0005900000000000001, 1.5145, 1.0
      ],
      "name": "Plane.008"
    },
    {
      "mesh": 2,
      "name": "Plane.008_0"
    },
    {
      "children": [9, 10],
      "matrix": [
        2.55499, 0.0, 0.0, 0.0, 0.0, 2.55499, 0.0, 0.0, 0.0, 0.0, 2.55499, 0.0,
        0.0, 0.3405500000000001, 0.0, 1.0
      ],
      "name": "Plane.001"
    },
    {
      "mesh": 3,
      "name": "Plane.001_0"
    },
    {
      "name": "MCH_Rotation_target.001",
      "scale": [0.39138999581336975, 0.39138999581336975, 0.39138999581336975]
    }
  ],
  "samplers": [
    {
      "magFilter": 9729,
      "minFilter": 9987,
      "wrapS": 10497,
      "wrapT": 10497
    }
  ],
  "scene": 0,
  "scenes": [
    {
      "name": "Sketchfab_Scene",
      "nodes": [0]
    }
  ],
  "textures": [
    {
      "sampler": 0,
      "source": 0
    },
    {
      "sampler": 0,
      "source": 1
    }
  ]
}
